<?xml version="1.0" encoding="UTF-8"?>
<svg width="168px" height="139px" viewBox="0 0 168 139" version="1.1" xmlns="http://www.w3.org/2000/svg" xmlns:xlink="http://www.w3.org/1999/xlink">
    <title>4D656132-6C6A-4941-8A77-DBEA14268880</title>
    <g id="Web-App" stroke="none" stroke-width="1" fill="none" fill-rule="evenodd">
        <g id="15_06_My_Campaigns" transform="translate(-516.000000, -356.000000)" fill-rule="nonzero">
            <g id="undraw_Logic_re_nyb4" transform="translate(516.000000, 356.000000)">
                <rect id="Rectangle" fill="#DB3364" x="13.5283331" y="81.604374" width="33.1088157" height="31.0675025"></rect>
                <path d="M60.1654843,123.474078 L0,123.474078 L0,70.8021722 L60.1654843,70.8021722 L60.1654843,123.474078 Z M0.356008525,123.116981 L59.8094757,123.116981 L59.8094757,71.1592697 L0.356008525,71.1592697 L0.356008525,123.116981 Z" id="Shape" fill="#3F3D56"></path>
                <path d="M142.656511,50.8427588 C132.406027,50.8427588 123.164871,44.6491283 119.24218,35.1499479 C115.31949,25.6507674 117.487773,14.7167382 124.735961,7.44638143 C131.98415,0.176024668 142.884837,-1.99888716 152.355049,1.93580404 C161.825262,5.87049523 168,15.1399193 168,25.4217578 C167.984211,39.4548266 156.646788,50.8269257 142.656511,50.8427588 L142.656511,50.8427588 Z M142.656511,0.377350834 C128.867051,0.377350834 117.688482,11.5901093 117.688482,25.4217486 C117.688482,39.2533879 128.867046,50.466151 142.656507,50.466151 C156.445968,50.466151 167.624541,39.2533971 167.624541,25.4217578 C167.609018,11.5965722 156.439538,0.392928212 142.656511,0.377350834 L142.656511,0.377350834 Z" id="Shape" fill="#DB3364"></path>
                <ellipse id="Oval" fill="#DB3364" cx="141.905595" cy="25.4217532" rx="12.2024207" ry="12.2397448"></ellipse>
                <polygon id="Rectangle" fill="#D1D1D1" transform="translate(160.711272, 68.270187) rotate(-30.000000) translate(-160.711272, -68.270187) " points="156.52869 64.0812007 164.90494 64.0701151 164.893854 72.4591724 156.517604 72.4702581"></polygon>
                <polygon id="Rectangle" fill="#D1D1D1" transform="translate(50.088312, 27.522983) rotate(-30.000000) translate(-50.088312, -27.522983) " points="45.9057286 23.3339968 54.2819807 23.3229111 54.270895 31.7119685 45.8946429 31.7230542"></polygon>
                <polygon id="Rectangle" fill="#D1D1D1" transform="translate(150.612890, 114.082021) rotate(-30.000000) translate(-150.612890, -114.082021) " points="146.430308 109.893038 154.806557 109.881953 154.795472 118.271003 146.419222 118.282089"></polygon>
                <rect id="Rectangle" fill="#FFFFFF" x="27.0566662" y="94.1027922" width="6.05214951" height="6.0706615"></rect>
                <ellipse id="Oval" fill="#FFFFFF" cx="141.905595" cy="25.4217532" rx="3.00367246" ry="3.01285993"></ellipse>
                <polygon id="Rectangle" fill="#DB3364" transform="translate(128.350614, 78.629660) rotate(-30.000000) translate(-128.350614, -78.629660) " points="119.378604 69.6439238 137.346403 69.6201441 137.322624 87.6153954 119.354824 87.6391752"></polygon>
                <rect id="Rectangle" fill="#CBCBCB" x="41.0819672" y="138.53958" width="96.3934426" height="1"></rect>
                <path d="M77.6631502,76.4403862 C77.0977628,75.7116196 76.883228,74.7690861 77.0772727,73.8664023 C77.2713174,72.9637184 77.8540088,72.19361 78.6685567,71.7632975 L78.0189613,64.6627516 L82.2245039,63.2143702 L83.0014557,73.254643 C83.6455865,74.7070195 83.1049372,76.4131055 81.7429945,77.2258733 C80.3810517,78.0386411 78.6283039,77.7011878 77.6631502,76.4403885 L77.6631502,76.4403862 Z" id="Path" fill="#FFB8B8"></path>
                <path d="M82.1779574,35.6873626 C82.1779574,35.6873626 85.0639793,29.6121568 87.6284397,31.7491889 C90.1929,33.886221 84.1126036,51.8493322 84.1126036,51.8493322 L83.1878302,69.287449 L78.3139551,68.7988025 L76.9359649,51.8093032 L82.1779574,35.6873626 Z" id="Path" fill="#CCCCCC"></path>
                <polygon id="Path" fill="#FFB8B8" points="43.4665574 125.567067 47.0845246 128.504779 60.102459 115.905144 54.7627213 111.569595"></polygon>
                <path d="M43.4999485,123.632969 L50.6250007,129.418195 L50.6252875,129.418426 C53.1327401,131.454758 53.5199124,135.144347 51.4900997,137.659721 L51.3706521,137.807721 L39.704918,128.335597 L43.4999485,123.632969 Z" id="Path" fill="#2F2E41"></path>
                <polygon id="Path" fill="#FFB8B8" points="93.7474426 133.721803 98.4023279 133.721572 100.616623 115.712689 93.7467541 115.712919"></polygon>
                <path d="M92.5601967,132.197401 L101.727062,132.197028 L101.727433,132.197028 C104.953687,132.197201 107.569054,134.820527 107.569275,138.056649 L107.569275,138.247065 L92.5604744,138.247625 L92.5601967,132.197401 Z" id="Path" fill="#2F2E41"></path>
                <path d="M101.915272,49.2942314 C101.915272,49.2942314 110.647772,59.9576187 108.749402,70.621006 C106.851032,81.2843933 105.332337,89.2819373 105.332337,89.2819373 L102.294945,113.27456 C102.294945,113.27456 103.433967,119.808734 101.915272,121.492505 C101.915272,121.492505 104.193315,125.46129 100.016902,126.98463 C95.8404885,128.50797 93.5870462,126.458358 93.5870462,126.458358 C93.5870462,126.458358 90.5250534,122.033773 92.4234213,120.891265 L93.2231289,73.8063187 L62.8088518,113.655394 C62.8088518,113.655394 62.2498043,118.502677 58.3529157,118.554465 L53.6966787,122.033773 L48.3812459,118.98709 L51.0389508,115.559571 C51.0389508,115.559571 49.5202538,111.75122 52.937321,110.989549 L72.6803666,85.0927423 L77.6161285,71.763507 C77.6161285,71.763507 80.2738472,61.4809519 87.4876525,57.2917638 L87.4876525,52.8342036 L101.915272,49.2942314 Z" id="Path" fill="#2F2E41"></path>
                <path d="M86.9181508,30.8237185 L86.9181508,30.8237185 C89.2979781,28.0025952 93.4087755,27.420395 96.4742731,29.4703127 L96.7896702,29.6812221 L96.7896702,29.6812221 C100.159742,33.5093641 102.42481,38.1871642 103.340931,43.2108301 L104.762826,51.0079921 L86.9181508,54.8853144 L82.7347764,40.413486 C81.6390898,36.6231097 83.399053,32.5886506 86.9181439,30.8237254 L86.9181508,30.8237185 Z" id="Path" fill="#CCCCCC"></path>
                <path d="M116.235858,78.098146 C115.234388,77.7697797 114.429356,77.0133333 114.03738,76.0323507 C113.645405,75.0513682 113.706751,73.9466185 114.20491,73.0153671 L109.057246,66.6960648 L112.122787,62.6216549 L119.267327,71.6481441 C120.805294,72.6124489 121.381152,74.5781828 120.607742,76.2237502 C119.834332,77.8693177 117.956117,78.67458 116.235851,78.098146 L116.235858,78.098146 Z" id="Path" fill="#FFB8B8"></path>
                <path d="M94.5116292,36.5362489 C94.5116292,36.5362489 93.3726075,28.9195417 97.1693479,29.3003785 C100.966088,29.6812152 106.661196,50.6271531 106.661196,50.6271531 L116.912393,67.764742 L111.976631,70.43059 L99.8270643,55.1971848 L94.5116292,36.5362489 Z" id="Path" fill="#CCCCCC"></path>
                <path d="M101.464328,25.4009445 L83.3845072,25.4009445 C82.6101472,25.4000742 81.9826208,24.7706283 81.9817531,23.9938997 L81.9817531,16.1770455 C81.9817531,10.3920856 86.657089,5.70244897 92.4244082,5.70244897 C98.1917273,5.70244897 102.867063,10.3920856 102.867063,16.1770455 L102.867063,23.9939089 C102.866191,24.7706268 102.238677,25.4000641 101.464328,25.4009445 Z" id="Path" fill="#2F2E41"></path>
                <ellipse id="Oval" fill="#FFB8B8" transform="translate(94.570283, 17.539380) rotate(-61.336820) translate(-94.570283, -17.539380) " cx="94.5702832" cy="17.5393798" rx="7.67422376" ry="7.6615813"></ellipse>
                <path d="M105.337561,16.9587311 L95.7023705,16.9587311 L95.603542,15.3666572 L95.109537,16.9587311 L93.6259249,16.9587311 L93.4301269,13.8032836 L92.4510013,16.9587311 L89.5802852,16.9587311 L89.5802852,16.8023954 C89.5802852,12.2334987 92.8098993,8.51652009 96.779659,8.51652009 L98.138118,8.51652009 C102.10788,8.51652009 105.337561,12.233494 105.337561,16.8023954 L105.337561,16.9587311 Z" id="Path" fill="#2F2E41"></path>
                <path d="M96.1011272,26.8601181 C95.9833785,26.8600279 95.8658077,26.850939 95.7494357,26.8329303 L84.2810282,25.0611059 L84.2810282,13.0794475 C84.2810282,10.5306401 86.340944,8.46442352 88.881979,8.46442352 L96.9055351,8.46442352 L96.5929793,8.78351788 C92.2443613,13.2244062 95.5205403,20.4253653 97.8604544,24.3224765 C98.2130765,24.8975477 98.1499427,25.6361673 97.7048754,26.142638 C97.3017965,26.6071363 96.7149894,26.8696603 96.1011272,26.8601181 Z" id="Path" fill="#2F2E41"></path>
            </g>
        </g>
    </g>
</svg>